<svg width="729" height="702" viewBox="0 0 729 702" fill="none" xmlns="http://www.w3.org/2000/svg">
<path fill-rule="evenodd" clip-rule="evenodd" d="M346.8 1.59817C302.656 9.59856 268.259 45.0232 257.843 93.2121C256.293 100.382 256.077 107.198 256.077 148.775C256.077 191.27 256.268 197.037 257.933 204.605C260.199 214.912 264 226.465 267.235 232.886L269.652 237.682L267.12 244.003C259.938 261.937 263.105 280.697 275.532 293.821C278.32 296.767 282.622 300.243 285.092 301.545L289.583 303.914L289.303 437.104L289.023 570.294L286.348 579.996C280.787 600.152 270.163 614.841 255.99 621.967C246.58 626.699 238.48 628.68 224.534 629.66C218.173 630.107 211.136 631.021 208.899 631.691C201.879 633.792 195.551 639.424 191.668 647.027C188.581 653.073 188.188 654.711 188.208 661.455C188.244 673.855 194.377 684.223 204.916 689.701C216.611 695.778 251.992 691.788 275.267 681.764C311.93 665.975 336.062 634.005 346.603 587.255C348.836 577.354 348.857 576.496 349.408 474.517C349.815 399.056 350.271 371.226 351.125 369.761C352.608 367.215 357.312 362.851 360.134 361.402C362.941 359.962 369.943 359.962 372.75 361.402C375.572 362.851 380.276 367.215 381.759 369.761C382.604 371.211 383.077 393.825 383.487 452.568L384.052 533.38L386.713 545.464C394.202 579.486 408.932 604.984 431.569 623.108C441.438 631.011 459.959 640.481 472.548 644.062C493.378 649.987 518.387 651.259 527.346 646.849C533.617 643.763 539 638.213 542.087 631.652C545.872 623.605 545.813 612.438 541.944 604.554C540.419 601.448 537.33 597.245 535.079 595.213C528.505 589.281 523.668 587.677 509.41 586.701C494.532 585.684 487.403 584.005 477.559 579.205C462.735 571.975 451.975 557.106 446.202 535.874L443.896 527.394L443.585 416.019L443.275 304.644L448.905 301.471C459.972 295.231 467.616 284.371 470.333 271.023C472.448 260.64 469.702 246.425 463.947 237.964C461.521 234.399 461.487 234.133 462.998 230.678C466.271 223.195 470.374 209.294 471.875 200.604C473.179 193.061 473.376 183.836 473.076 144.486L472.717 97.3943L469.921 87.0175C464.749 67.8241 457.893 54.2307 445.848 39.2835C422.247 9.99664 382.951 -4.95459 346.8 1.59817ZM591.987 197.242C585.641 199.193 577.136 207.078 574.071 213.853L571.692 219.111V342.325V465.538L573.918 470.357C579.24 481.875 587.542 487.922 599.175 488.753C611.465 489.632 622.095 483.675 627.92 472.644L630.62 467.533V342.325V217.116L627.656 211.769C620.459 198.791 606.044 192.92 591.987 197.242ZM120.242 235.912C110.274 239.207 103.357 245.672 99.8859 254.939L97.7385 260.674L98.0032 381.064L98.2689 501.454L101.045 507.102C112.849 531.11 146.213 529.541 155.58 504.537L157.727 498.802L157.463 377.913L157.197 257.023L154.938 252.492C148.479 239.54 132.446 231.878 120.242 235.912ZM309.893 237.657C315.198 239.129 322.962 246.596 325.195 252.377C328.026 259.704 327.542 268.79 323.974 275.339C321.328 280.196 315.274 286.455 313.222 286.455C312.767 286.455 313.094 285.457 313.949 284.237C314.804 283.018 315.504 280.054 315.504 277.652C315.504 274.017 314.936 272.718 312.108 269.893C308.296 266.085 303.569 265.392 298.67 267.923C292.994 270.854 291.681 280.114 296.183 285.458L298.833 288.606L294.934 286.98C285.664 283.118 279.559 273.389 279.58 262.51C279.6 251.494 284.549 243.426 294.03 238.948C299.496 236.367 303.939 236.006 309.893 237.657ZM437.71 237.649C441.946 238.824 449.686 245.385 451.915 249.688C454.63 254.935 455.574 262.034 454.343 267.96C452.979 274.516 448.096 282.162 443.615 284.753L440.385 286.619L441.86 283.793C444.486 278.764 443.796 273.732 439.952 269.893C436.14 266.085 431.413 265.392 426.514 267.923C420.883 270.832 419.524 280.114 423.961 285.38C426.979 288.963 426.627 289.13 421.532 286.534C412.914 282.144 408.209 274.614 407.574 264.204C406.865 252.554 411.97 243.52 421.867 238.916C427.345 236.368 431.804 236.012 437.71 237.649ZM688.83 252.42C681.715 255.277 676.762 259.743 672.982 266.705L669.572 272.986L669.281 314.74C668.951 362.045 669.106 363.343 676.158 372.254C683.886 382.02 697.278 385.747 709.587 381.557C716.415 379.233 724.038 371.461 726.849 363.955C728.922 358.421 729 356.738 729 317.526C729 271.721 728.814 270.232 722.047 261.679C714.452 252.082 699.825 248.004 688.83 252.42ZM216.328 306.797C207.193 310.177 201.011 316.282 197.574 325.316C195.744 330.127 195.65 333.641 195.65 397.17C195.65 461.888 195.713 464.135 197.681 469.389C202.114 481.224 211.768 488.181 224.615 488.802C231.522 489.135 232.608 488.903 238.567 485.816C243.041 483.498 246.154 480.981 248.691 477.63C255.754 468.295 255.577 470.356 255.577 397.197C255.577 324.04 255.753 326.099 248.692 316.767C241.722 307.555 226.747 302.942 216.328 306.797ZM493.984 314.833C485.72 317.777 479.749 323.629 475.605 332.847C473.947 336.534 473.811 341.114 473.811 393.206V449.575L476.409 455.108C481.327 465.582 487.7 470.649 498.977 473.055C508.795 475.148 521.675 469.806 527.667 461.155C533.885 452.179 533.738 453.815 533.738 393.705C533.738 342.27 533.618 338.49 531.83 333.355C529.297 326.08 520.779 317.423 513.834 315.064C507.956 313.067 499.226 312.965 493.984 314.833ZM20.3638 369.488C15.303 371.29 9.08158 376.09 5.99335 380.573C0.0406051 389.216 -0.22607 391.759 0.0965372 436.757L0.388182 477.51L2.998 482.997C6.12519 489.573 11.5126 495.117 17.767 498.195C21.3816 499.975 24.0653 500.457 30.3517 500.457C37.3431 500.457 39.0111 500.087 43.6944 497.496C50.3912 493.79 55.2074 488.241 57.8501 481.188C59.8127 475.947 59.8837 474 59.606 432.72L59.3163 389.714L56.6166 384.603C53.2547 378.236 46.1694 371.9 40.1058 369.836C34.8961 368.063 24.8653 367.886 20.3638 369.488Z" fill="white"/>
</svg>
